<svg xmlns="http://www.w3.org/2000/svg" xmlns:xlink="http://www.w3.org/1999/xlink" width="500" zoomAndPan="magnify" viewBox="0 0 375 374.999991" height="500" preserveAspectRatio="xMidYMid meet" version="1.0"><defs><g/></defs><rect x="-37.5" width="450" fill="#ffffff" y="-37.499999" height="449.999989" fill-opacity="1"/><rect x="-37.5" width="450" fill="#efecec" y="-37.499999" height="449.999989" fill-opacity="1"/><path fill="#2b2b2b" d="M 267.21875 272.351562 L 107.507812 272.351562 C 104.777344 272.351562 102.539062 270.113281 102.539062 267.382812 L 102.539062 107.667969 C 102.539062 104.941406 104.777344 102.699219 107.507812 102.699219 L 267.21875 102.699219 C 269.949219 102.699219 272.1875 104.941406 272.1875 107.667969 L 272.1875 267.382812 C 272.1875 270.113281 269.949219 272.351562 267.21875 272.351562 Z M 107.996094 266.890625 L 266.78125 266.890625 L 266.78125 108.105469 L 107.996094 108.105469 Z M 107.996094 266.890625 " fill-opacity="1" fill-rule="nonzero"/><path fill="#2b2b2b" d="M 138.375 133.070312 L 240.1875 234.886719 L 236.324219 238.746094 L 134.511719 136.929688 Z M 138.375 133.070312 " fill-opacity="1" fill-rule="nonzero"/><path fill="#2b2b2b" d="M 185.390625 183.964844 L 189.25 187.824219 L 138.367188 238.71875 L 134.507812 234.855469 Z M 185.390625 183.964844 " fill-opacity="1" fill-rule="nonzero"/><path fill="#2b2b2b" d="M 236.316406 133.050781 L 240.175781 136.914062 L 198.640625 178.460938 L 194.777344 174.601562 Z M 236.316406 133.050781 " fill-opacity="1" fill-rule="nonzero"/><g fill="#000000" fill-opacity="1"><g transform="translate(173.42674, 155.778974)"><g><path d="M 15.921875 -26.453125 C 17.597656 -26.453125 18.925781 -26.195312 19.90625 -25.6875 C 21.101562 -25.082031 22.023438 -24.242188 22.671875 -23.171875 C 23.316406 -22.109375 23.640625 -20.921875 23.640625 -19.609375 C 23.640625 -18.367188 23.304688 -17.222656 22.640625 -16.171875 C 21.984375 -15.117188 21.085938 -14.289062 19.953125 -13.6875 C 21.316406 -13.195312 22.46875 -12.359375 23.40625 -11.171875 C 24.34375 -9.984375 24.8125 -8.640625 24.8125 -7.140625 C 24.8125 -5.828125 24.472656 -4.617188 23.796875 -3.515625 C 23.128906 -2.410156 22.238281 -1.539062 21.125 -0.90625 C 20.570312 -0.601562 19.953125 -0.375 19.265625 -0.21875 C 18.578125 -0.0703125 17.664062 0 16.53125 0 L 4.828125 0 L 4.828125 -26.453125 Z M 15.921875 -26.453125 "/></g></g></g><g fill="#000000" fill-opacity="1"><g transform="translate(216.597969, 197.738541)"><g><path d="M 4.5625 0 L 4.5625 -26.453125 L 14.40625 -26.453125 C 16.332031 -26.453125 18.109375 -25.96875 19.734375 -25 C 21.367188 -24.039062 22.664062 -22.742188 23.625 -21.109375 C 24.59375 -19.472656 25.078125 -17.691406 25.078125 -15.765625 L 25.078125 -10.671875 C 25.078125 -8.753906 24.59375 -6.976562 23.625 -5.34375 C 22.664062 -3.707031 21.367188 -2.40625 19.734375 -1.4375 C 18.109375 -0.476562 16.332031 0 14.40625 0 Z M 4.5625 0 "/></g></g></g><g fill="#000000" fill-opacity="1"><g transform="translate(173.433392, 247.721)"><g><path d="M 2.78125 -26.453125 L 25.34375 -26.453125 L 14.78125 -10.828125 L 14.78125 0 L 13.375 0 L 13.375 -10.828125 Z M 2.78125 -26.453125 "/></g></g></g><g fill="#000000" fill-opacity="1"><g transform="translate(128.957515, 197.738541)"><g><path d="M 4.5625 0 L 4.5625 -26.453125 L 14.40625 -26.453125 C 16.332031 -26.453125 18.109375 -25.96875 19.734375 -25 C 21.367188 -24.039062 22.664062 -22.742188 23.625 -21.109375 C 24.59375 -19.472656 25.078125 -17.691406 25.078125 -15.765625 L 25.078125 -10.671875 C 25.078125 -8.753906 24.59375 -6.976562 23.625 -5.34375 C 22.664062 -3.707031 21.367188 -2.40625 19.734375 -1.4375 C 18.109375 -0.476562 16.332031 0 14.40625 0 Z M 4.5625 0 "/></g></g></g><g fill="#000000" fill-opacity="1"><g transform="translate(70.119917, 141.128722)"><g><path d="M 3.3125 -19.234375 L 17.328125 -19.234375 L 17.328125 -14.375 L 8.34375 -14.375 L 8.34375 -11.9375 L 15.8125 -11.9375 L 15.8125 -7.328125 L 8.34375 -7.328125 L 8.34375 -4.859375 L 17.328125 -4.859375 L 17.328125 0 L 3.3125 0 Z M 3.3125 -19.234375 "/></g></g></g><g fill="#000000" fill-opacity="1"><g transform="translate(70.119917, 179.378719)"><g><path d="M 10.359375 0.5 C 7.691406 0.5 5.632812 -0.128906 4.1875 -1.390625 C 2.738281 -2.660156 2.023438 -4.554688 2.046875 -7.078125 L 6.546875 -7.078125 C 6.523438 -6.023438 6.835938 -5.222656 7.484375 -4.671875 C 8.128906 -4.117188 9.035156 -3.84375 10.203125 -3.84375 C 11.160156 -3.84375 11.914062 -4 12.46875 -4.3125 C 13.019531 -4.625 13.296875 -5.101562 13.296875 -5.75 C 13.296875 -6.28125 13.015625 -6.664062 12.453125 -6.90625 C 11.890625 -7.144531 11.332031 -7.316406 10.78125 -7.421875 C 10.226562 -7.523438 9.882812 -7.582031 9.75 -7.59375 C 8.332031 -7.875 7.109375 -8.210938 6.078125 -8.609375 C 5.046875 -9.003906 4.179688 -9.609375 3.484375 -10.421875 C 2.785156 -11.234375 2.4375 -12.300781 2.4375 -13.625 C 2.4375 -14.945312 2.785156 -16.070312 3.484375 -17 C 4.179688 -17.9375 5.113281 -18.632812 6.28125 -19.09375 C 7.457031 -19.5625 8.734375 -19.796875 10.109375 -19.796875 C 11.785156 -19.796875 13.238281 -19.476562 14.46875 -18.84375 C 15.695312 -18.21875 16.660156 -17.269531 17.359375 -16 C 17.710938 -15.394531 17.925781 -14.8125 18 -14.25 C 18.070312 -13.6875 18.109375 -13.140625 18.109375 -12.609375 L 13.59375 -12.609375 C 13.59375 -13.597656 13.328125 -14.328125 12.796875 -14.796875 C 12.265625 -15.265625 11.4375 -15.5 10.3125 -15.5 C 9.40625 -15.5 8.703125 -15.34375 8.203125 -15.03125 C 7.710938 -14.71875 7.46875 -14.296875 7.46875 -13.765625 C 7.46875 -13.171875 7.796875 -12.734375 8.453125 -12.453125 C 9.117188 -12.179688 9.957031 -11.9375 10.96875 -11.71875 C 12.632812 -11.382812 13.929688 -11.066406 14.859375 -10.765625 C 15.785156 -10.460938 16.585938 -9.921875 17.265625 -9.140625 C 17.953125 -8.367188 18.296875 -7.285156 18.296875 -5.890625 C 18.296875 -4.554688 17.925781 -3.410156 17.1875 -2.453125 C 16.457031 -1.492188 15.488281 -0.757812 14.28125 -0.25 C 13.070312 0.25 11.765625 0.5 10.359375 0.5 Z M 10.359375 0.5 "/></g></g></g><g fill="#000000" fill-opacity="1"><g transform="translate(70.119917, 217.628717)"><g><path d="M 9.734375 0 L 9.734375 -14.375 L 2.453125 -14.375 L 2.453125 -19.234375 L 18 -19.234375 L 18 -14.375 L 10.71875 -14.375 L 10.71875 0 Z M 9.734375 0 "/></g></g></g><g fill="#000000" fill-opacity="1"><g transform="translate(70.119917, 255.878714)"><g><path d="M 3.3125 0 L 3.3125 -19.234375 L 10.46875 -19.234375 C 11.875 -19.234375 13.171875 -18.882812 14.359375 -18.1875 C 15.546875 -17.488281 16.488281 -16.546875 17.1875 -15.359375 C 17.894531 -14.171875 18.25 -12.875 18.25 -11.46875 L 18.25 -7.765625 C 18.25 -6.367188 17.894531 -5.070312 17.1875 -3.875 C 16.488281 -2.6875 15.546875 -1.742188 14.359375 -1.046875 C 13.171875 -0.347656 11.875 0 10.46875 0 Z M 3.3125 0 "/></g></g></g><g fill="#000000" fill-opacity="1"><g transform="translate(288.983539, 141.128722)"><g><path d="M 16.203125 -1.015625 L 16.203125 0 L 4.25 0 L 4.25 -1.015625 L 8.40625 -5.578125 L 12.15625 -9.671875 L 12.5 -10.03125 C 13.226562 -10.800781 13.796875 -11.503906 14.203125 -12.140625 C 14.609375 -12.785156 14.8125 -13.472656 14.8125 -14.203125 C 14.8125 -15.035156 14.601562 -15.789062 14.1875 -16.46875 C 13.78125 -17.15625 13.210938 -17.691406 12.484375 -18.078125 C 11.753906 -18.460938 10.945312 -18.65625 10.0625 -18.65625 C 9.21875 -18.65625 8.429688 -18.441406 7.703125 -18.015625 C 6.972656 -17.597656 6.394531 -17.023438 5.96875 -16.296875 C 5.539062 -15.566406 5.328125 -14.769531 5.328125 -13.90625 L 4.3125 -13.90625 C 4.3125 -14.957031 4.566406 -15.921875 5.078125 -16.796875 C 5.597656 -17.671875 6.296875 -18.363281 7.171875 -18.875 C 8.046875 -19.394531 9.007812 -19.65625 10.0625 -19.65625 C 11.144531 -19.65625 12.125 -19.421875 13 -18.953125 C 13.875 -18.484375 14.566406 -17.832031 15.078125 -17 C 15.585938 -16.164062 15.84375 -15.234375 15.84375 -14.203125 C 15.84375 -13.285156 15.609375 -12.46875 15.140625 -11.75 C 14.679688 -11.03125 14.046875 -10.226562 13.234375 -9.34375 L 12.90625 -8.984375 L 5.640625 -1.015625 Z M 16.203125 -1.015625 "/></g></g></g><g fill="#000000" fill-opacity="1"><g transform="translate(288.983539, 179.378719)"><g><path d="M 16.71875 -6.078125 C 16.71875 -4.898438 16.425781 -3.8125 15.84375 -2.8125 C 15.269531 -1.820312 14.484375 -1.035156 13.484375 -0.453125 C 12.492188 0.128906 11.410156 0.421875 10.234375 0.421875 C 9.046875 0.421875 7.953125 0.128906 6.953125 -0.453125 C 5.960938 -1.035156 5.175781 -1.820312 4.59375 -2.8125 C 4.019531 -3.8125 3.734375 -4.898438 3.734375 -6.078125 L 3.734375 -13.125 C 3.734375 -14.300781 4.019531 -15.390625 4.59375 -16.390625 C 5.175781 -17.390625 5.960938 -18.175781 6.953125 -18.75 C 7.953125 -19.332031 9.046875 -19.625 10.234375 -19.625 C 11.410156 -19.625 12.492188 -19.332031 13.484375 -18.75 C 14.484375 -18.175781 15.269531 -17.390625 15.84375 -16.390625 C 16.425781 -15.390625 16.71875 -14.300781 16.71875 -13.125 Z M 4.71875 -6.078125 C 4.71875 -5.453125 4.835938 -4.804688 5.078125 -4.140625 L 14.84375 -16.0625 C 14.34375 -16.832031 13.6875 -17.445312 12.875 -17.90625 C 12.070312 -18.375 11.191406 -18.609375 10.234375 -18.609375 C 9.234375 -18.609375 8.3125 -18.363281 7.46875 -17.875 C 6.632812 -17.382812 5.96875 -16.71875 5.46875 -15.875 C 4.96875 -15.039062 4.71875 -14.125 4.71875 -13.125 Z M 15.734375 -13.125 C 15.734375 -13.75 15.613281 -14.394531 15.375 -15.0625 L 5.609375 -3.15625 C 6.109375 -2.363281 6.765625 -1.734375 7.578125 -1.265625 C 8.390625 -0.804688 9.273438 -0.578125 10.234375 -0.578125 C 11.222656 -0.578125 12.132812 -0.828125 12.96875 -1.328125 C 13.8125 -1.828125 14.484375 -2.492188 14.984375 -3.328125 C 15.484375 -4.171875 15.734375 -5.085938 15.734375 -6.078125 Z M 15.734375 -13.125 "/></g></g></g><g fill="#000000" fill-opacity="1"><g transform="translate(288.983539, 217.628717)"><g><path d="M 16.203125 -1.015625 L 16.203125 0 L 4.25 0 L 4.25 -1.015625 L 8.40625 -5.578125 L 12.15625 -9.671875 L 12.5 -10.03125 C 13.226562 -10.800781 13.796875 -11.503906 14.203125 -12.140625 C 14.609375 -12.785156 14.8125 -13.472656 14.8125 -14.203125 C 14.8125 -15.035156 14.601562 -15.789062 14.1875 -16.46875 C 13.78125 -17.15625 13.210938 -17.691406 12.484375 -18.078125 C 11.753906 -18.460938 10.945312 -18.65625 10.0625 -18.65625 C 9.21875 -18.65625 8.429688 -18.441406 7.703125 -18.015625 C 6.972656 -17.597656 6.394531 -17.023438 5.96875 -16.296875 C 5.539062 -15.566406 5.328125 -14.769531 5.328125 -13.90625 L 4.3125 -13.90625 C 4.3125 -14.957031 4.566406 -15.921875 5.078125 -16.796875 C 5.597656 -17.671875 6.296875 -18.363281 7.171875 -18.875 C 8.046875 -19.394531 9.007812 -19.65625 10.0625 -19.65625 C 11.144531 -19.65625 12.125 -19.421875 13 -18.953125 C 13.875 -18.484375 14.566406 -17.832031 15.078125 -17 C 15.585938 -16.164062 15.84375 -15.234375 15.84375 -14.203125 C 15.84375 -13.285156 15.609375 -12.46875 15.140625 -11.75 C 14.679688 -11.03125 14.046875 -10.226562 13.234375 -9.34375 L 12.90625 -8.984375 L 5.640625 -1.015625 Z M 16.203125 -1.015625 "/></g></g></g><g fill="#000000" fill-opacity="1"><g transform="translate(288.983539, 255.878714)"><g><path d="M 12.6875 -19.265625 L 13.703125 -19.265625 L 13.703125 -6 L 17.046875 -6 L 17.046875 -5 L 13.703125 -5 L 13.703125 0 L 12.6875 0 L 12.6875 -5 L 3.40625 -5 L 3.40625 -6.03125 Z M 12.6875 -6 L 12.6875 -17.5 L 4.609375 -6 Z M 12.6875 -6 "/></g></g></g></svg>