<svg xmlns="http://www.w3.org/2000/svg" xmlns:xlink="http://www.w3.org/1999/xlink" width="500" zoomAndPan="magnify" viewBox="0 0 375 374.999991" height="500" preserveAspectRatio="xMidYMid meet" version="1.0"><defs><g/><clipPath id="6f997baad3"><path d="M 169.453125 147 L 205.453125 147 L 205.453125 172.511719 L 169.453125 172.511719 Z M 169.453125 147 " clip-rule="nonzero"/></clipPath><clipPath id="b0feeaa796"><path d="M 169.453125 139 L 205.453125 139 L 205.453125 165 L 169.453125 165 Z M 169.453125 139 " clip-rule="nonzero"/></clipPath><clipPath id="f2c4fd8c91"><path d="M 169.453125 131.261719 L 205.453125 131.261719 L 205.453125 157 L 169.453125 157 Z M 169.453125 131.261719 " clip-rule="nonzero"/></clipPath></defs><rect x="-37.5" width="450" fill="#ffffff" y="-37.499999" height="449.999989" fill-opacity="1"/><rect x="-37.5" width="450" fill="#000000" y="-37.499999" height="449.999989" fill-opacity="1"/><g clip-path="url(#6f997baad3)"><path fill="#ffffff" d="M 169.496094 172.480469 L 205.488281 172.511719 L 187.527344 147.515625 Z M 169.496094 172.480469 " fill-opacity="1" fill-rule="nonzero"/></g><g clip-path="url(#b0feeaa796)"><path fill="#ffffff" d="M 170.023438 164.078125 L 187.527344 139.839844 L 204.945312 164.09375 L 170.023438 164.078125 M 169.453125 164.078125 C 169.453125 164.164062 169.464844 164.25 169.507812 164.335938 C 169.609375 164.519531 169.808594 164.648438 170.023438 164.648438 L 204.945312 164.664062 C 205.160156 164.664062 205.359375 164.550781 205.460938 164.347656 C 205.503906 164.265625 205.519531 164.179688 205.519531 164.09375 C 205.519531 163.980469 205.476562 163.863281 205.402344 163.765625 L 187.984375 139.511719 C 187.871094 139.371094 187.699219 139.269531 187.527344 139.269531 C 187.34375 139.269531 187.171875 139.355469 187.070312 139.511719 L 169.566406 163.734375 C 169.496094 163.835938 169.453125 163.949219 169.453125 164.078125 Z M 169.453125 164.078125 " fill-opacity="1" fill-rule="nonzero"/></g><g clip-path="url(#f2c4fd8c91)"><path fill="#ffffff" d="M 170.050781 156.03125 L 187.554688 131.808594 L 204.976562 156.0625 L 170.050781 156.03125 M 169.480469 156.03125 C 169.480469 156.117188 169.496094 156.203125 169.539062 156.289062 C 169.636719 156.472656 169.835938 156.601562 170.050781 156.601562 L 204.976562 156.632812 C 205.191406 156.632812 205.390625 156.515625 205.488281 156.316406 C 205.53125 156.230469 205.546875 156.144531 205.546875 156.0625 C 205.546875 155.945312 205.503906 155.832031 205.433594 155.734375 L 188.011719 131.480469 C 187.898438 131.335938 187.726562 131.238281 187.554688 131.238281 C 187.371094 131.238281 187.199219 131.324219 187.101562 131.480469 L 169.59375 155.691406 C 169.523438 155.789062 169.480469 155.917969 169.480469 156.03125 Z M 169.480469 156.03125 " fill-opacity="1" fill-rule="nonzero"/></g><g fill="#ffffff" fill-opacity="1"><g transform="translate(95.008592, 222.262368)"><g><path d="M 20.953125 -34.796875 C 23.148438 -34.796875 24.898438 -34.460938 26.203125 -33.796875 C 27.765625 -32.992188 28.96875 -31.894531 29.8125 -30.5 C 30.664062 -29.101562 31.09375 -27.535156 31.09375 -25.796875 C 31.09375 -24.160156 30.660156 -22.648438 29.796875 -21.265625 C 28.929688 -19.890625 27.75 -18.800781 26.25 -18 C 28.050781 -17.363281 29.566406 -16.257812 30.796875 -14.6875 C 32.035156 -13.125 32.65625 -11.363281 32.65625 -9.40625 C 32.65625 -7.664062 32.210938 -6.070312 31.328125 -4.625 C 30.441406 -3.175781 29.265625 -2.035156 27.796875 -1.203125 C 27.066406 -0.796875 26.25 -0.492188 25.34375 -0.296875 C 24.445312 -0.0976562 23.25 0 21.75 0 L 6.34375 0 L 6.34375 -34.796875 Z M 20.953125 -34.796875 "/></g></g></g><g fill="#ffffff" fill-opacity="1"><g transform="translate(132.002864, 222.262368)"><g><path d="M 6 0 L 6 -34.796875 L 18.953125 -34.796875 C 21.484375 -34.796875 23.820312 -34.160156 25.96875 -32.890625 C 28.125 -31.628906 29.832031 -29.921875 31.09375 -27.765625 C 32.363281 -25.617188 33 -23.28125 33 -20.75 L 33 -14.046875 C 33 -11.515625 32.363281 -9.171875 31.09375 -7.015625 C 29.832031 -4.867188 28.125 -3.160156 25.96875 -1.890625 C 23.820312 -0.628906 21.484375 0 18.953125 0 Z M 6 0 "/></g></g></g><g fill="#ffffff" fill-opacity="1"><g transform="translate(168.997136, 222.262368)"><g><path d="M 3.65625 -34.796875 L 33.34375 -34.796875 L 19.453125 -14.25 L 19.453125 0 L 17.59375 0 L 17.59375 -14.25 Z M 3.65625 -34.796875 "/></g></g></g><g fill="#ffffff" fill-opacity="1"><g transform="translate(205.991407, 222.262368)"><g><path d="M 6 0 L 6 -34.796875 L 18.953125 -34.796875 C 21.484375 -34.796875 23.820312 -34.160156 25.96875 -32.890625 C 28.125 -31.628906 29.832031 -29.921875 31.09375 -27.765625 C 32.363281 -25.617188 33 -23.28125 33 -20.75 L 33 -14.046875 C 33 -11.515625 32.363281 -9.171875 31.09375 -7.015625 C 29.832031 -4.867188 28.125 -3.160156 25.96875 -1.890625 C 23.820312 -0.628906 21.484375 0 18.953125 0 Z M 6 0 "/></g></g></g><g fill="#ffffff" fill-opacity="1"><g transform="translate(242.985679, 222.262368)"><g><path d="M 31.546875 -21.84375 C 31.546875 -19.476562 30.976562 -17.28125 29.84375 -15.25 C 28.71875 -13.21875 27.1875 -11.578125 25.25 -10.328125 C 23.3125 -9.078125 21.175781 -8.382812 18.84375 -8.25 C 19.914062 -8.050781 20.800781 -7.523438 21.5 -6.671875 C 22.195312 -5.828125 22.546875 -4.851562 22.546875 -3.75 C 22.546875 -2.519531 22.101562 -1.460938 21.21875 -0.578125 C 20.34375 0.304688 19.269531 0.75 18 0.75 C 16.726562 0.75 15.648438 0.304688 14.765625 -0.578125 C 13.890625 -1.460938 13.453125 -2.519531 13.453125 -3.75 C 13.453125 -5.019531 13.890625 -6.09375 14.765625 -6.96875 C 15.648438 -7.851562 16.726562 -8.296875 18 -8.296875 L 18 -17.40625 C 19.226562 -17.40625 20.285156 -17.835938 21.171875 -18.703125 C 22.054688 -19.566406 22.5 -20.613281 22.5 -21.84375 C 22.5 -23.082031 22.054688 -24.140625 21.171875 -25.015625 C 20.285156 -25.898438 19.226562 -26.34375 18 -26.34375 C 16.769531 -26.34375 15.710938 -25.898438 14.828125 -25.015625 C 13.941406 -24.140625 13.5 -23.082031 13.5 -21.84375 L 4.453125 -21.84375 C 4.453125 -24.3125 5.054688 -26.578125 6.265625 -28.640625 C 7.484375 -30.710938 9.125 -32.359375 11.1875 -33.578125 C 13.257812 -34.796875 15.53125 -35.40625 18 -35.40625 C 20.46875 -35.40625 22.734375 -34.796875 24.796875 -33.578125 C 26.867188 -32.359375 28.507812 -30.710938 29.71875 -28.640625 C 30.9375 -26.578125 31.546875 -24.3125 31.546875 -21.84375 Z M 20.703125 -3.75 C 20.703125 -4.519531 20.441406 -5.160156 19.921875 -5.671875 C 19.410156 -6.191406 18.769531 -6.453125 18 -6.453125 C 17.269531 -6.453125 16.632812 -6.191406 16.09375 -5.671875 C 15.5625 -5.160156 15.296875 -4.519531 15.296875 -3.75 C 15.296875 -3.019531 15.5625 -2.394531 16.09375 -1.875 C 16.632812 -1.351562 17.269531 -1.09375 18 -1.09375 C 18.726562 -1.09375 19.359375 -1.351562 19.890625 -1.875 C 20.429688 -2.394531 20.703125 -3.019531 20.703125 -3.75 Z M 20.703125 -3.75 "/></g></g></g></svg>